<?xml version="1.0" encoding="UTF-8"?>
<svg xmlns="http://www.w3.org/2000/svg" xmlns:xlink="http://www.w3.org/1999/xlink" width="40pt" height="40pt" viewBox="0 0 40 40" version="1.1">
<g id="surface1">
<path style=" stroke:none;fill-rule:nonzero;fill:rgb(11.372549%,12.156863%,12.156863%);fill-opacity:1;" d="M 19.03125 0.355469 C 17.753906 0.75 16.699219 1.84375 15.421875 2.125 C 13.421875 2.566406 11.742188 1.777344 9.867188 3.105469 C 8.449219 4.105469 8.167969 5.8125 6.949219 6.855469 C 5.578125 8.035156 4.03125 8.183594 2.957031 9.871094 C 1.824219 11.652344 2.636719 13.355469 2.003906 15.148438 C 1.503906 16.574219 0.339844 17.597656 -0.015625 19.09375 C -0.0507812 19.253906 -0.078125 19.417969 -0.0976562 19.589844 C -0.3125 21.75 1.425781 22.960938 1.84375 24.867188 C 2.175781 26.359375 1.546875 27.820312 2.191406 29.3125 C 3.101562 31.429688 4.867188 31.757812 6.390625 33.152344 C 7.644531 34.300781 7.777344 36.0625 9.3125 37.148438 C 11.109375 38.417969 12.652344 37.777344 14.589844 38.210938 C 16 38.527344 16.972656 39.792969 18.476562 40.054688 C 21.097656 40.515625 22.296875 38.953125 24.589844 38.445312 C 25.859375 38.164062 27.175781 38.636719 28.476562 38.261719 C 31.167969 37.484375 31.238281 35.222656 33.039062 33.683594 C 34.3125 32.589844 35.796875 32.488281 36.867188 30.980469 C 38.136719 29.183594 37.496094 27.636719 37.929688 25.703125 C 38.292969 24.074219 39.695312 23.054688 39.839844 21.257812 C 40.027344 18.902344 38.621094 17.78125 38.164062 15.703125 C 37.832031 14.207031 38.402344 12.765625 37.785156 11.257812 C 36.914062 9.121094 35.140625 8.8125 33.617188 7.421875 C 32.742188 6.617188 32.574219 5.238281 31.75 4.339844 C 29.738281 2.152344 27.910156 2.917969 25.421875 2.363281 C 23.074219 1.835938 22.054688 0.464844 19.03125 0.355469 M 32.367188 8.480469 C 37.023438 8.722656 37.652344 12.859375 36.808594 16.535156 C 39.648438 19.511719 37.570312 21.644531 36.59375 24.375 C 36.292969 25.207031 36.769531 26.691406 36.222656 29.035156 C 35.949219 31.800781 34.460938 32.527344 31.808594 32.648438 C 31.453125 36.710938 27.566406 38.664062 24.03125 36.8125 C 19.613281 39.894531 17.882812 38.894531 15.097656 37.1875 C 14.339844 36.726562 13.246094 37.402344 12.367188 37.3125 C 9.3125 37.148438 7.769531 34.804688 7.644531 32.089844 C 2.941406 30.433594 2.359375 27.714844 3.199219 24.035156 C -0.0976562 19.589844 2.125 18.105469 3.101562 15.378906 C 3.402344 14.546875 3.164062 13.042969 3.246094 12.164062 C 3.519531 9.316406 5.464844 8.050781 8.199219 7.925781 C 8.441406 3.238281 12.195312 2.824219 15.886719 3.664062 C 19.03125 0.355469 22.183594 2.40625 24.914062 3.382812 C 25.746094 3.683594 26.765625 3.171875 27.644531 3.257812 C 30.464844 3.527344 32.242188 5.769531 32.367188 8.480469 M 22.644531 14.589844 C 20.085938 16.503906 19.300781 14.699219 16.808594 15.113281 C 15.589844 15.3125 14.796875 16.386719 13.476562 16.535156 C 13.476562 19.582031 12.675781 23.980469 13.902344 26.8125 C 15.96875 31.585938 22.867188 32.097656 25.566406 27.648438 C 27.394531 24.632812 26.53125 19.9375 26.53125 16.535156 L 22.644531 14.589844 M 20.421875 29.867188 L 20.976562 28.480469 L 19.308594 28.480469 L 19.867188 29.867188 C 13.207031 29.5625 14.308594 22.070312 14.308594 17.367188 C 15.226562 17.078125 16.132812 16.3125 17.089844 16.226562 C 18.128906 16.136719 19.066406 16.832031 20.144531 16.71875 C 22.148438 16.507812 23.617188 15.660156 25.253906 17.546875 C 26.023438 18.433594 25.699219 20.167969 25.699219 21.257812 C 25.699219 25.082031 25.144531 29.453125 20.421875 29.867188 M 12.644531 16.8125 C 9.761719 17.414062 7.902344 19.019531 7.921875 22.089844 C 7.929688 22.828125 7.855469 24.125 8.621094 24.554688 C 9.476562 25.035156 10.667969 23.964844 11.226562 23.429688 C 13.015625 21.722656 13.320312 19.109375 12.644531 16.8125 M 27.367188 16.8125 C 26.6875 19.109375 26.996094 21.722656 28.78125 23.429688 C 29.34375 23.964844 30.535156 25.035156 31.390625 24.554688 C 32.152344 24.125 32.082031 22.828125 32.085938 22.089844 C 32.109375 19.019531 30.246094 17.414062 27.367188 16.8125 M 12.089844 17.925781 C 12.089844 20.5625 11.65625 22.535156 9.03125 23.757812 C 8.378906 21.015625 9.179688 18.660156 12.089844 17.925781 M 30.976562 23.757812 C 28.355469 22.535156 27.921875 20.5625 27.921875 17.925781 C 30.832031 18.660156 31.628906 21.015625 30.976562 23.757812 Z M 30.976562 23.757812 "/>
</g>
</svg>
